<?xml version="1.0" encoding="UTF-8" standalone="no"?>
<!-- Created with Inkscape (http://www.inkscape.org/) -->

<svg
   xmlns:osb="http://www.openswatchbook.org/uri/2009/osb"
   xmlns:dc="http://purl.org/dc/elements/1.1/"
   xmlns:cc="http://creativecommons.org/ns#"
   xmlns:rdf="http://www.w3.org/1999/02/22-rdf-syntax-ns#"
   xmlns:svg="http://www.w3.org/2000/svg"
   xmlns="http://www.w3.org/2000/svg"
   xmlns:sodipodi="http://sodipodi.sourceforge.net/DTD/sodipodi-0.dtd"
   xmlns:inkscape="http://www.inkscape.org/namespaces/inkscape"
   width="512"
   height="512"
   viewBox="0 0 135.46666 135.46667"
   version="1.1"
   id="svg8"
   inkscape:version="0.92.3 (2405546, 2018-03-11)"
   sodipodi:docname="logo.svg"
   inkscape:export-filename="D:\Desktop\logo.png"
   inkscape:export-xdpi="96"
   inkscape:export-ydpi="96">
  <defs
     id="defs2">
    <linearGradient
       id="linearGradient2393"
       osb:paint="solid">
      <stop
         style="stop-color:#ff6600;stop-opacity:1;"
         offset="0"
         id="stop2391" />
    </linearGradient>
  </defs>
  <sodipodi:namedview
     id="base"
     pagecolor="#ffffff"
     bordercolor="#666666"
     borderopacity="1.0"
     inkscape:pageopacity="0.0"
     inkscape:pageshadow="2"
     inkscape:zoom="1"
     inkscape:cx="186.74892"
     inkscape:cy="327.50092"
     inkscape:document-units="mm"
     inkscape:current-layer="layer1"
     showgrid="false"
     units="px"
     inkscape:window-width="1896"
     inkscape:window-height="1052"
     inkscape:window-x="0"
     inkscape:window-y="0"
     inkscape:window-maximized="1" />
  <metadata
     id="metadata5">
    <rdf:RDF>
      <cc:Work
         rdf:about="">
        <dc:format>image/svg+xml</dc:format>
        <dc:type
           rdf:resource="http://purl.org/dc/dcmitype/StillImage" />
        <dc:title />
      </cc:Work>
    </rdf:RDF>
  </metadata>
  <g
     inkscape:label="Layer 1"
     inkscape:groupmode="layer"
     id="layer1"
     transform="translate(30.88913,-192.42244)">
    <path
       style="fill:#ffffff;stroke:#fffffc;stroke-width:1.05833333;stroke-miterlimit:4;stroke-dasharray:none;stroke-opacity:1"
       d="m 36.84383,194.36596 c -1.877666,0.001 -3.755469,0.46979 -5.386752,1.40353 v 5.2e-4 c -16.340019,9.22723 -32.6800156,18.45695 -49.022846,27.67996 -3.180091,1.71189 -5.324832,5.20641 -5.290632,8.83357 v 55.75215 c -0.02296,3.69792 2.232136,7.22624 5.494236,8.9147 4.694219,2.55541 9.255247,5.3703 14.0342861,7.7556 5.5203989,2.77567 12.4270319,3.38975 18.0149209,0.49506 4.535821,-2.39936 6.550818,-7.73532 6.54482,-12.63902 0.02876,-14.45688 0.01837,-28.91399 0.0155,-43.371 v -11.84837 c 0.0132,-0.11228 0.01217,-0.22528 0,-0.33693 v -0.5426 H 34.12978 v -3.96358 c 0,-2.22965 -1.27e-4,-4.03805 -0.09922,-4.08761 0,-0.0743 -7.853444,-0.0992 -17.391184,-0.0992 l -17.34106098,0.0744 v 4.0628 l -0.0744141,-0.0248 v 4.038 H 12.106321 v 11.22309 c -0.007,14.75092 0.0099,29.50401 -0.0083,44.25569 0.04546,2.52917 -1.623936,4.96033 -4.0059561,5.81463 -2.6992818,1.01036 -5.707671,0.22679 -8.15764118,-1.09192 C -4.4143841,294.20855 -8.7662639,291.7611 -13.112294,289.2966 a 1.5600534,1.5600534 0 0 1 -0.885216,-1.54771 c 0,-18.39401 0.003,-36.78838 0,-55.17958 -0.0792,-0.74136 0.367043,-1.40931 1.032494,-1.71204 16.2861304,-9.17287 32.56412,-18.36867 48.850248,-27.54716 a 1.6968919,1.6968919 0 0 1 1.918229,0.003 c 16.28613,9.17569 32.566988,18.36297 48.855932,27.53631 0.667791,0.30226 1.09476,0.98124 1.02681,1.71979 -0.0028,18.3912 0.0061,36.78579 -0.0052,55.17699 0.04827,0.65092 -0.280665,1.28149 -0.874882,1.56735 -16.037293,9.06837 -32.097009,18.09971 -48.137114,27.16527 -0.76667,0.42739 -1.674471,1.11521 -2.571419,0.59737 -4.204505,-2.37967 -8.358138,-4.85221 -12.548587,-7.25485 -0.455499,-0.29098 -1.035828,-0.41566 -1.51102,-0.0904 -1.879179,1.01316 -3.757713,2.05739 -5.803262,2.70784 -0.908201,0.36787 -2.025862,0.47259 -2.651001,1.31517 0.70715,0.971 1.836103,1.44625 2.837553,2.04328 4.90088,2.83799 9.809795,5.66462 14.710212,8.50543 3.226017,2.06007 7.560757,2.20684 10.890808,0.30282 16.342836,-9.21552 32.679785,-18.44223 49.025431,-27.65774 3.253665,-1.69783 5.520299,-5.2119 5.497339,-8.91264 v -55.75163 c 0.0314,-3.55359 -2.031428,-6.98579 -5.11545,-8.72298 -16.396728,-9.27222 -32.801073,-18.52448 -49.200614,-27.79107 -1.629879,-0.93796 -3.507537,-1.40459 -5.3852,-1.40353 z m 14.283883,39.84201 c -1.817939,-0.008 -3.63116,0.0667 -5.413107,0.18138 v -5.1e-4 c -5.149255,0.52065 -10.565141,1.9755 -14.316956,5.75262 -3.847875,3.79727 -4.685345,9.92879 -2.857707,14.88591 1.309809,3.5025 4.606285,5.78026 8.015531,6.9851 8.397764,3.03341 17.602356,2.05994 26.08213,4.74235 1.652373,0.56048 3.576323,1.41781 4.082439,3.25716 0.46722,2.17864 -0.04478,4.71077 -1.773537,6.22443 -3.276629,2.65382 -7.784099,2.70805 -11.799278,2.88613 -4.846524,-0.0764 -10.157198,0.11068 -14.38982,-2.62 -2.193166,-1.49116 -3.138511,-4.13099 -3.522781,-6.6461 -0.04265,-0.78401 -0.659572,-1.50282 -1.491383,-1.44332 -2.082569,-0.0255 -4.165107,-0.02 -6.24768,-0.003 -0.726831,-0.0623 -1.482071,0.46654 -1.521873,1.22524 -0.16683,4.49272 1.513576,9.1477 4.95422,12.13518 4.023617,3.55124 9.447522,4.9207 14.65957,5.51491 5.542899,0.54033 11.207054,0.50905 16.665133,-0.70797 4.102814,-0.956 8.216784,-2.71604 11.041187,-5.95002 3.482822,-3.9299 4.167453,-9.78085 2.605525,-14.67611 -1.194057,-3.65246 -4.606667,-5.99581 -8.095113,-7.20111 -8.425881,-2.95656 -17.5284,-2.73295 -26.118301,-4.97954 -1.491166,-0.46956 -3.31406,-0.97918 -3.978569,-2.55798 -0.704813,-2.19879 -0.104616,-4.92882 1.87017,-6.28127 2.572285,-1.78547 5.837137,-2.04849 8.87336,-2.20969 4.159049,-0.0398 8.581486,-0.13559 12.395626,1.77405 2.484649,1.27326 3.924369,3.88749 4.518586,6.52725 0.110128,0.77558 0.6198,1.58451 1.497065,1.55081 2.068045,0.0421 4.136748,0.011 6.204791,0.014 0.710435,0.0511 1.488061,-0.35963 1.626774,-1.10381 -0.08763,-5.51712 -2.840738,-11.16413 -7.806757,-13.85497 -4.810556,-2.63356 -10.305436,-3.39734 -15.759245,-3.42098 z"
       id="path3717-9"
       inkscape:connector-curvature="0" />
    <g
       id="g4615">
      <g
         style="fill:#8cc84b;stroke:none;stroke-width:2.13416815;stroke-miterlimit:4;stroke-dasharray:none;stroke-opacity:1"
         transform="matrix(0.46862522,0,0,0.46862522,-23.1398,194.09211)"
         id="g3721">
        <path
           style="stroke:none;stroke-width:2.13416815;stroke-miterlimit:4;stroke-dasharray:none;stroke-opacity:1"
           inkscape:connector-curvature="0"
           d="m 116.504,3.58 c 6.962,-3.985 16.03,-4.003 22.986,0 34.995,19.774 70.001,39.517 104.99,59.303 6.581,3.707 10.983,11.031 10.916,18.614 v 118.968 c 0.049,7.897 -4.788,15.396 -11.731,19.019 -34.88,19.665 -69.742,39.354 -104.616,59.019 -7.106,4.063 -16.356,3.75 -23.24,-0.646 -10.457,-6.062 -20.932,-12.094 -31.39,-18.15 -2.137,-1.274 -4.546,-2.288 -6.055,-4.36 1.334,-1.798 3.719,-2.022 5.657,-2.807 4.365,-1.388 8.374,-3.616 12.384,-5.778 1.014,-0.694 2.252,-0.428 3.224,0.193 8.942,5.127 17.805,10.403 26.777,15.481 1.914,1.105 3.852,-0.362 5.488,-1.274 34.228,-19.345 68.498,-38.617 102.72,-57.968 1.268,-0.61 1.969,-1.956 1.866,-3.345 0.024,-39.245 0.006,-78.497 0.012,-117.742 0.145,-1.576 -0.767,-3.025 -2.192,-3.67 -34.759,-19.575 -69.5,-39.18 -104.253,-58.76 a 3.621,3.621 0 0 0 -4.094,-0.006 C 91.2,39.257 56.465,58.88 21.712,78.454 c -1.42,0.646 -2.373,2.071 -2.204,3.653 0.006,39.245 0,78.497 0,117.748 a 3.329,3.329 0 0 0 1.89,3.303 c 9.274,5.259 18.56,10.481 27.84,15.722 5.228,2.814 11.647,4.486 17.407,2.33 5.083,-1.823 8.646,-7.01 8.549,-12.407 0.048,-39.016 -0.024,-78.038 0.036,-117.048 -0.127,-1.732 1.516,-3.163 3.2,-3 4.456,-0.03 8.918,-0.06 13.374,0.012 1.86,-0.042 3.14,1.823 2.91,3.568 -0.018,39.263 0.048,78.527 -0.03,117.79 0.012,10.464 -4.287,21.85 -13.966,26.97 -11.924,6.177 -26.662,4.867 -38.442,-1.056 -10.198,-5.09 -19.93,-11.097 -29.947,-16.55 C 5.368,215.886 0.555,208.357 0.604,200.466 V 81.497 C 0.531,73.757 5.108,66.3 11.894,62.647 46.768,42.966 81.636,23.27 116.504,3.58 Z"
           id="path3717" />
        <path
           style="stroke:none;stroke-width:2.13416815;stroke-miterlimit:4;stroke-dasharray:none;stroke-opacity:1"
           inkscape:connector-curvature="0"
           d="m 146.928,85.99 c 15.21,-0.979 31.493,-0.58 45.18,6.913 10.597,5.742 16.472,17.793 16.659,29.566 -0.296,1.588 -1.956,2.464 -3.472,2.355 -4.413,-0.006 -8.827,0.06 -13.24,-0.03 -1.872,0.072 -2.96,-1.654 -3.195,-3.309 -1.268,-5.633 -4.34,-11.212 -9.642,-13.929 -8.139,-4.075 -17.576,-3.87 -26.451,-3.785 -6.479,0.344 -13.446,0.905 -18.935,4.715 -4.214,2.886 -5.494,8.712 -3.99,13.404 1.418,3.369 5.307,4.456 8.489,5.458 18.33,4.794 37.754,4.317 55.734,10.626 7.444,2.572 14.726,7.572 17.274,15.366 3.333,10.446 1.872,22.932 -5.56,31.318 -6.027,6.901 -14.805,10.657 -23.56,12.697 -11.647,2.597 -23.734,2.663 -35.562,1.51 -11.122,-1.268 -22.696,-4.19 -31.282,-11.768 -7.342,-6.375 -10.928,-16.308 -10.572,-25.895 0.085,-1.619 1.697,-2.748 3.248,-2.615 4.444,-0.036 8.888,-0.048 13.332,0.006 1.775,-0.127 3.091,1.407 3.182,3.08 0.82,5.367 2.837,11 7.517,14.182 9.032,5.827 20.365,5.428 30.707,5.591 8.568,-0.38 18.186,-0.495 25.178,-6.158 3.689,-3.23 4.782,-8.634 3.785,-13.283 -1.08,-3.925 -5.186,-5.754 -8.712,-6.95 -18.095,-5.724 -37.736,-3.647 -55.656,-10.12 -7.275,-2.571 -14.31,-7.432 -17.105,-14.906 -3.9,-10.578 -2.113,-23.662 6.098,-31.765 8.006,-8.06 19.563,-11.164 30.551,-12.275 z"
           id="path3719" />
      </g>
      <path
         sodipodi:nodetypes="cccccccsccccc"
         inkscape:export-ydpi="96"
         inkscape:export-xdpi="96"
         id="path2462-3"
         d="m -0.77618072,232.42516 v 4.03808 H 12.105964 v 36.66452 h 9.141354 v -36.66452 h 12.882146 v -3.96376 c 0,-2.22965 0,-4.03804 -0.09909,-4.0876 0,-0.0743 -7.85315,-0.0992 -17.39089,-0.0992 l -17.34134079,0.0744 v 4.06283 z"
         class="st1"
         inkscape:connector-curvature="0"
         style="fill:#007acc;fill-opacity:1;stroke:none;stroke-width:0.75925142;stroke-miterlimit:4;stroke-dasharray:none;stroke-opacity:1" />
    </g>
  </g>
  <style
     id="style842">.st0{fill:#007acc}.st1{fill:#fff}</style>
  <style
     id="style2458">.st0{fill:#007acc}.st1{fill:#fff}</style>
  <style
     id="style842-4">.st0{fill:#007acc}.st1{fill:#fff}</style>
  <style
     id="style2458-5">.st0{fill:#007acc}.st1{fill:#fff}</style>
</svg>
